G04 MADE WITH FRITZING*
G04 WWW.FRITZING.ORG*
G04 DOUBLE SIDED*
G04 HOLES PLATED*
G04 CONTOUR ON CENTER OF CONTOUR VECTOR*
%ASAXBY*%
%FSLAX23Y23*%
%MOIN*%
%OFA0B0*%
%SFA1.0B1.0*%
%ADD10C,0.088000*%
%ADD11C,0.090350*%
%ADD12C,0.054000*%
%ADD13C,0.072992*%
%ADD14C,0.085000*%
%ADD15C,0.049370*%
%ADD16C,0.135984*%
%ADD17R,0.088000X0.088000*%
%ADD18R,0.072992X0.072992*%
%ADD19R,0.085000X0.085000*%
%LNMASK1*%
G90*
G70*
G54D10*
X1007Y1968D03*
X1007Y1868D03*
X1007Y1768D03*
X1007Y1668D03*
X1007Y1568D03*
X1007Y1468D03*
X1007Y1368D03*
X1007Y1268D03*
X1007Y1168D03*
X1007Y1068D03*
X1007Y968D03*
X1007Y868D03*
X1007Y768D03*
X1007Y668D03*
X407Y1968D03*
X407Y1868D03*
X407Y1768D03*
X407Y1668D03*
X407Y1568D03*
X407Y1468D03*
X407Y1368D03*
X407Y1268D03*
X407Y1168D03*
X407Y1068D03*
X407Y968D03*
X407Y868D03*
X407Y768D03*
X407Y668D03*
X108Y1668D03*
X108Y1568D03*
X108Y1468D03*
X108Y1368D03*
X108Y1268D03*
X108Y1168D03*
X108Y1068D03*
X108Y968D03*
X108Y1668D03*
X108Y1568D03*
X108Y1468D03*
X108Y1368D03*
X108Y1268D03*
X108Y1168D03*
X108Y1068D03*
X108Y968D03*
X208Y968D03*
X208Y1068D03*
X208Y1168D03*
X208Y1268D03*
X208Y1368D03*
X208Y1468D03*
X208Y1568D03*
X208Y1668D03*
X208Y318D03*
X308Y318D03*
X408Y318D03*
X508Y318D03*
X608Y318D03*
X708Y318D03*
X808Y318D03*
X908Y318D03*
X208Y318D03*
X308Y318D03*
X408Y318D03*
X508Y318D03*
X608Y318D03*
X708Y318D03*
X808Y318D03*
X908Y318D03*
X908Y418D03*
X808Y418D03*
X708Y418D03*
X608Y418D03*
X508Y418D03*
X408Y418D03*
X308Y418D03*
X208Y418D03*
X108Y168D03*
X208Y168D03*
X308Y168D03*
X408Y168D03*
X508Y168D03*
X608Y168D03*
X708Y168D03*
X808Y168D03*
X908Y168D03*
G54D11*
X1409Y171D03*
X1213Y368D03*
X1311Y368D03*
X1508Y368D03*
X1606Y368D03*
G54D12*
X1213Y171D03*
X1213Y73D03*
X1606Y73D03*
X1606Y171D03*
X1409Y368D03*
G54D11*
X1406Y1964D03*
X1603Y1768D03*
X1504Y1768D03*
X1307Y1768D03*
X1209Y1768D03*
G54D12*
X1603Y1964D03*
X1603Y2063D03*
X1209Y2063D03*
X1209Y1964D03*
X1406Y1768D03*
G54D10*
X2658Y468D03*
X2558Y468D03*
X2458Y468D03*
X2458Y1668D03*
X2558Y1668D03*
X2658Y1668D03*
G54D13*
X1956Y168D03*
X1858Y168D03*
X1956Y1968D03*
X1858Y1968D03*
G54D14*
X1407Y1168D03*
X1407Y768D03*
X1407Y1268D03*
X1807Y1268D03*
G54D15*
X707Y1568D03*
X607Y1468D03*
G54D16*
X2708Y1368D03*
X2708Y768D03*
X108Y2018D03*
X108Y668D03*
G54D10*
X2558Y68D03*
X2558Y2068D03*
X557Y1768D03*
X657Y1768D03*
X757Y1768D03*
X857Y1768D03*
G54D15*
X557Y1968D03*
G54D10*
X208Y1768D03*
X208Y1868D03*
G54D17*
X2658Y468D03*
X2458Y1668D03*
G54D18*
X1956Y168D03*
X1956Y1968D03*
G54D19*
X1407Y1168D03*
X1407Y1268D03*
G04 End of Mask1*
M02*