M48
INCH
T10C0.038000
T11C0.060350
T12C0.044000
T13C0.031497
T14C0.035000
T15C0.015748
T16C0.125984
%
T10
X002078Y018680
X002078Y017680
X008574Y017676
X007574Y017676
X006574Y017676
X005574Y017676
X025578Y020680
X025578Y000680
X026578Y016680
X025578Y016680
X024578Y016680
X024578Y004680
X025578Y004680
X026578Y004680
X009078Y001680
X008078Y001680
X007078Y001680
X006078Y001680
X005078Y001680
X004078Y001680
X003078Y001680
X002078Y001680
X001078Y001680
X002078Y004180
X003078Y004180
X004078Y004180
X005078Y004180
X006078Y004180
X007078Y004180
X008078Y004180
X009078Y004180
X009078Y003180
X008078Y003180
X007078Y003180
X006078Y003180
X005078Y003180
X004078Y003180
X003078Y003180
X002078Y003180
X002078Y016680
X002078Y015680
X002078Y014680
X002078Y013680
X002078Y012680
X002078Y011680
X002078Y010680
X002078Y009680
X001078Y009680
X001078Y010680
X001078Y011680
X001078Y012680
X001078Y013680
X001078Y014680
X001078Y015680
X001078Y016680
X004074Y006676
X004074Y007676
X004074Y008676
X004074Y009676
X004074Y010676
X004074Y011676
X004074Y012676
X004074Y013676
X004074Y014676
X004074Y015676
X004074Y016676
X004074Y017676
X004074Y018676
X004074Y019676
X010074Y006676
X010074Y007676
X010074Y008676
X010074Y009676
X010074Y010676
X010074Y011676
X010074Y012676
X010074Y013676
X010074Y014676
X010074Y015676
X010074Y016676
X010074Y017676
X010074Y018676
X010074Y019676
T11
X012090Y017676
X013074Y017676
X015042Y017676
X016026Y017676
X014058Y019644
X016062Y003680
X015078Y003680
X013110Y003680
X012126Y003680
X014094Y001712
T12
X014058Y017676
X012090Y019644
X012090Y020628
X016026Y020628
X016026Y019644
X014094Y003680
X016062Y001712
X016062Y000728
X012126Y000728
X012126Y001712
T13
X018578Y019680
X019562Y019680
X018578Y001680
X019562Y001680
T14
X018074Y012676
X014074Y012676
X014074Y007676
X014074Y011676
T15
X005574Y019676
X006074Y014676
X007074Y015676
T16
X001078Y006680
X001078Y020180
X027078Y007680
X027078Y013680
T00
M30
